HIERARCHY
ROOT Hips
{
	OFFSET	0.00	0.00	0.00
	CHANNELS 6 Xposition Yposition Zposition Zrotation Xrotation Yrotation
	JOINT Spine
	{
		OFFSET	 0.00	0.01	 0.00
		CHANNELS 3 Zrotation Xrotation Yrotation
		JOINT Spine1
		{
			OFFSET	 0.00	 2.45913012437421	 0.00
			CHANNELS 3 Zrotation Xrotation Yrotation
            JOINT Neck
            {
                OFFSET	 0.00	 2.48462964506057	 0.00
                CHANNELS 3 Zrotation Xrotation Yrotation
                JOINT Head
                {
                    OFFSET	 0.00	 0.927524780924562	 0.00
                    CHANNELS 3 Zrotation Xrotation Yrotation
                    End Site 
                    {
                        OFFSET	 0.00	 1.14999962169752	 0.00
                    }
                }
            }
			JOINT LeftShoulder
			{
				OFFSET	 0.00	 2.48462964506057	 0.00
				CHANNELS 3 Zrotation Xrotation Yrotation
				JOINT LeftUpArm
				{
					OFFSET	 0.00	 1.24881979654096	 0.00
					CHANNELS 3 Zrotation Xrotation Yrotation
					JOINT LeftForeArm
					{
						OFFSET	 0.00	2.59758046908119	 0.00
						CHANNELS 3 Zrotation Xrotation Yrotation
						JOINT LeftHand
						{
							OFFSET	 0.00	2.45542024364365	 0.00
							CHANNELS 3 Zrotation Xrotation Yrotation
							JOINT LeftHandThumb 
							{
								OFFSET	 0.00	0.00	 0.00
								CHANNELS 3 Zrotation Xrotation Yrotation
								End Site
								{
									OFFSET	 0.00	0.00	1.00000003353624
								}
							}
							JOINT L_Wrist_End 
							{
								OFFSET	 0.00	0.99999967115358	 0.00
								CHANNELS 3 Zrotation Xrotation Yrotation
								End Site 
								{
									OFFSET	 0.00	 0.00	 0.00
								}
							}
						}
					}
				}
			}
			JOINT RightShoulder
			{
				OFFSET	 0.00	 2.48462964506057	 0.00
				CHANNELS 3 Zrotation Xrotation Yrotation
				JOINT RightUpArm
				{
					OFFSET	 0.00	 1.24881979654096	 0.00
					CHANNELS 3 Zrotation Xrotation Yrotation
					JOINT RightForeArm
					{
						OFFSET	 0.00	2.59758046908119	 0.00
						CHANNELS 3 Zrotation Xrotation Yrotation
						JOINT RightHand
						{
							OFFSET	 0.00	2.45542024364365	 0.00
							CHANNELS 3 Zrotation Xrotation Yrotation
							JOINT RightHandThumb 
							{
								OFFSET	 0.00	0.00	 0.00
								CHANNELS 3 Zrotation Xrotation Yrotation
								End Site
								{
									OFFSET	 0.00	0.00	1.00000003353624
								}
							}
							JOINT R_Wrist_End 
							{
								OFFSET	 0.00	0.99999967115358	 0.00
								CHANNELS 3 Zrotation Xrotation Yrotation
								End Site 
								{
									OFFSET	 0.00	 0.00	 0.00
								}
							}
						}
					}
				}
			}
		}
	}
	JOINT LeftUpLeg
	{
		OFFSET	 1.2719394002717	 0.00	 0.00
		CHANNELS 3 Zrotation Xrotation Yrotation
		JOINT LeftLowLeg
		{
			OFFSET	 0.00	-4.3429100912261	 0.00
			CHANNELS 3 Zrotation Xrotation Yrotation
			JOINT LeftFoot
			{
				OFFSET	 0.00	-4.48767017425826	 0.00
				CHANNELS 3 Zrotation Xrotation Yrotation
				JOINT LeftToeBase
                {
                    OFFSET	 0.00	0.00	 1.51507020887566
                    CHANNELS 3 Zrotation Xrotation Yrotation
                    End Site 
                    {
                        OFFSET	 0.00	0.00	 0.75000010571191
                    }
                }
			}
		}
	}
	JOINT RightUpLeg
	{
		OFFSET	 -1.2719393604653	 0.00	 0.00
		CHANNELS 3 Zrotation Xrotation Yrotation
		JOINT RightLowLeg
		{
			OFFSET	 0.00	-4.3429100912261	 0.00
			CHANNELS 3 Zrotation Xrotation Yrotation
			JOINT RightFoot
			{
				OFFSET	 0.00	-4.48767017425826	 0.00
				CHANNELS 3 Zrotation Xrotation Yrotation
				JOINT RightToeBase
                {
                    OFFSET	 0.00	0.00	 1.51507020887566
                    CHANNELS 3 Zrotation Xrotation Yrotation
                    End Site 
                    {
                        OFFSET	 0.00	0.00	 0.749999965609858
                    }
                }   
			}
		}
	}
}
MOTION 
Frames:	20 
Frame Time: 0.02 
 1.0312100219726563 4.850039978027343 9.336409912109374 -162.874 78.2551 158.386 3.76583 -10.2829 2.21713 2.52533 -9.71814 2.55423 -39.9879 42.8909 395.063 94.9897 -56.5577 803.554 -113.4156 -8.8973 -10.386 17.7721 16.8939 -27.1412 0.0 6.7555 0.0 18.284 -10.0003 28.4786 0.0 0.0 0.0 0.0 0.0 0.0 111.0407 -8.62303 -358.787 -7.78223 -0.724764 50.7509 0.0 15.8815 0.0 -14.0667 -20.811 -47.1911 0.0 0.0 0.0 0.0 0.0 0.0 2.62324 -5.48946 8.28468 0.0 6.00358 0.0 -9.19414 -0.33679962 11.1169 0.0 -33.164803 0.0 7.57935 -7.46155 7.37629 0.0 6.75121 0.0 13.9236 4.2973003 -18.6199 0.0 -33.065002 0.0 
  1.0288400268554687 4.847139892578125 9.335960083007812 -162.814 78.2475 158.356 3.66015 -10.3956 2.18755 2.54894 -9.6671 2.55056 -40.0135 43.0224 395.066 94.9518 -56.5152 803.477 -113.4008 -8.86069 -10.3199 17.8555 16.9618 -27.1274 0.0 6.92382 0.0 18.4815 -9.86562 28.4993 0.0 0.0 0.0 0.0 0.0 0.0 111.0711 -8.51468 -358.942 -7.71328 -0.729883 50.8484 0.0 15.8712 0.0 -14.2323 -20.7833 -47.1506 0.0 0.0 0.0 0.0 0.0 0.0 2.646 -5.45472 8.30855 0.0 5.96097 0.0 -9.35319 -0.39050007 11.0146 0.0 -33.068398 0.0 7.60382 -7.43856 7.39474 0.0 6.74374 0.0 13.9283 4.2709 -18.6554 0.0 -33.0515 0.0 
  1.0266699981689453 4.844519958496094 9.33583984375 -162.728 78.2447 158.307 3.55452 -10.4786 2.16091 2.60204 -9.62099 2.54955 -40.0918 43.0795 395.13 94.9375 -56.51 803.413 -113.4559 -8.87418 -10.243 18.0503 17.1727 -26.922 0.0 6.82232 0.0 18.5978 -9.62442 28.1203 0.0 0.0 0.0 0.0 0.0 0.0 111.0902 -8.46005 -359.016 -7.67433 -0.719401 51.0219 0.0 15.8982 0.0 -14.0558 -20.6551 -46.9103 0.0 0.0 0.0 0.0 0.0 0.0 2.6688 -5.42309 8.28959 0.0 5.92625 0.0 -9.20866 -0.33670044 11.0665 0.0 -33.143997 0.0 7.62337 -7.40088 7.36805 0.0 6.71503 0.0 13.9384 4.2704 -18.6487 0.0 -33.0328 0.0 
  1.024530029296875 4.842359924316407 9.335490112304688 -162.682 78.24 158.296 3.4568 -10.5386 2.14175 2.63334 -9.61222 2.55602 -40.2219 43.0867 395.269 94.932 -56.5277 803.28 -113.4479 -8.83472 -10.2023 18.0558 17.1912 -27.007 0.0 7.07225 0.0 18.7621 -9.52734 28.1055 0.0 0.0 0.0 0.0 0.0 0.0 111.098495 -8.44241 -359.054 -7.6317 -0.68649 50.979 0.0 15.9563 0.0 -13.8866 -20.5979 -46.6897 0.0 0.0 0.0 0.0 0.0 0.0 2.68811 -5.40982 8.27287 0.0 5.91687 0.0 -9.23007 -0.3526001 11.0483 0.0 -33.1324 0.0 7.64218 -7.37868 7.39113 0.0 6.7015 0.0 13.9425 4.2524004 -18.6876 0.0 -33.067 0.0 
  1.0228700256347656 4.840660095214844 9.335009765625 -162.632 78.2289 158.271 3.36922 -10.5884 2.13918 2.68599 -9.59168 2.57626 -40.3006 43.0914 395.304 94.9517 -56.5617 803.312 -113.446304 -8.82209 -10.2101 18.0233 17.2753 -27.0164 0.0 7.22992 0.0 18.8092 -9.38619 28.0456 0.0 0.0 0.0 0.0 0.0 0.0 111.096 -8.43227 -359.103 -7.61385 -0.696619 50.8006 0.0 16.0944 0.0 -13.7685 -20.6596 -46.5186 0.0 0.0 0.0 0.0 0.0 0.0 2.70581 -5.40589 8.21847 0.0 5.91195 0.0 -9.23929 -0.37380028 11.0801 0.0 -33.1549 0.0 7.66515 -7.37356 7.41833 0.0 6.70342 0.0 13.9361 4.2272997 -18.7359 0.0 -33.0649 0.0 
  1.0216500091552734 4.839200134277344 9.3347998046875 -162.57 78.2298 158.223 3.31579 -10.6185 2.13908 2.68029 -9.59783 2.59171 -40.3439 43.1232 395.327 94.9526 -56.5581 803.336 -113.4728 -8.83379 -10.1762 18.0845 17.3922 -27.0166 0.0 7.28429 0.0 18.7494 -9.29614 27.8342 0.0 0.0 0.0 0.0 0.0 0.0 111.0961 -8.47555 -359.105 -7.57579 -0.587198 50.9219 0.0 16.1307 0.0 -13.5212 -20.4241 -46.4018 0.0 0.0 0.0 0.0 0.0 0.0 2.72204 -5.40078 8.17673 0.0 5.92922 0.0 -9.39605 -0.45289993 11.0503 0.0 -33.0565 0.0 7.67782 -7.35176 7.41692 0.0 6.69422 0.0 13.9551 4.219 -18.7245 0.0 -33.062 0.0 
  1.0205899810791015 4.837630004882812 9.33468017578125 -162.547 78.2362 158.201 3.27834 -10.6444 2.14543 2.63887 -9.61643 2.61066 -40.3651 43.1698 395.376 94.9018 -56.518 803.258 -113.4656 -8.80427 -10.0657 18.0999 17.3679 -27.2267 0.0 7.46334 0.0 18.6885 -9.30661 27.7601 0.0 0.0 0.0 0.0 0.0 0.0 111.1024 -8.61358 -359.109 -7.53849 -0.346239 50.9455 0.0 16.1508 0.0 -13.3969 -20.2027 -46.1995 0.0 0.0 0.0 0.0 0.0 0.0 2.73 -5.3928 8.15565 0.0 5.94704 0.0 -9.40406 -0.467 11.0694 0.0 -33.077 0.0 7.68633 -7.34198 7.42759 0.0 6.71027 0.0 13.9643 4.2075005 -18.7291 0.0 -33.0773 0.0 
  1.0195899963378907 4.836050109863281 9.334580078125 -162.53 78.2398 158.174 3.24818 -10.6859 2.15192 2.61048 -9.61141 2.62664 -40.419 43.1884 395.436 94.8669 -56.5258 803.137 -113.4715 -8.80987 -9.96341 18.1319 17.3952 -27.355 0.0 7.50881 0.0 18.6149 -9.31833 27.5243 0.0 0.0 0.0 0.0 0.0 0.0 111.1204 -8.58564 -359.226 -7.54408 -0.336565 51.0848 0.0 16.2364 0.0 -13.2849 -20.0639 -45.9705 0.0 0.0 0.0 0.0 0.0 0.0 2.73659 -5.38001 8.1626 0.0 5.9543 0.0 -9.2506 -0.42870045 11.1462 0.0 -33.133 0.0 7.69588 -7.33026 7.46399 0.0 6.71852 0.0 13.9736 4.1955996 -18.7473 0.0 -33.0836 0.0 
  1.01875 4.834530029296875 9.334340209960937 -162.527 78.2348 158.143 3.22905 -10.7125 2.17272 2.57376 -9.6395 2.65577 -40.3638 43.3462 395.316 94.8093 -56.496 803.094 -113.4527 -8.7882 -9.91913 18.0765 17.3635 -27.5356 0.0 7.63264 0.0 18.6543 -9.30523 27.5616 0.0 0.0 0.0 0.0 0.0 0.0 111.1144 -8.57976 -359.21 -7.52135 -0.33265 50.9802 0.0 16.3096 0.0 -13.1781 -19.8484 -45.6433 0.0 0.0 0.0 0.0 0.0 0.0 2.74451 -5.36919 8.16637 0.0 5.95704 0.0 -9.27926 -0.45400047 11.1611 0.0 -33.1227 0.0 7.70594 -7.32744 7.47745 0.0 6.72431 0.0 13.9642 4.1911 -18.7325 0.0 -33.0526 0.0 
  1.0179100036621094 4.832250061035157 9.333920288085938 -162.49 78.2279 158.088 3.21137 -10.7741 2.17973 2.55453 -9.64251 2.66891 -40.3812 43.5732 395.308 94.6353 -56.4135 802.901 -113.429504 -8.78887 -10.0545 17.9589 17.3852 -27.1919 0.0 7.70541 0.0 18.7411 -9.29345 27.5008 0.0 0.0 0.0 0.0 0.0 0.0 111.111404 -8.55428 -359.247 -7.543 -0.330669 50.9085 0.0 16.3587 0.0 -13.1021 -19.736 -45.512 0.0 0.0 0.0 0.0 0.0 0.0 2.76103 -5.35572 8.22192 0.0 5.95904 0.0 -9.27184 -0.4737997 11.1304 0.0 -33.1315 0.0 7.71963 -7.3112 7.45533 0.0 6.7158 0.0 13.9467 4.1956997 -18.6993 0.0 -33.0474 0.0 
  1.0173100280761718 4.830450134277344 9.3335302734375 -162.502 78.2185 158.079 3.19313 -10.8588 2.18341 2.52559 -9.60545 2.67773 -40.3126 43.8858 395.116 94.5224 -56.3786 802.69 -113.4552 -8.77232 -10.0109 17.957 17.326 -27.102 0.0 7.75078 0.0 18.8943 -9.21969 27.4221 0.0 0.0 0.0 0.0 0.0 0.0 111.1276 -8.49535 -359.247 -7.5668 -0.370559 50.9146 0.0 16.4566 0.0 -12.9418 -19.712 -45.4115 0.0 0.0 0.0 0.0 0.0 0.0 2.76679 -5.3533 8.26088 0.0 5.96598 0.0 -9.27684 -0.49470043 11.1166 0.0 -33.1233 0.0 7.72456 -7.29892 7.44564 0.0 6.69458 0.0 13.9421 4.2015 -18.6764 0.0 -33.1096 0.0 
  1.0165699768066405 4.828039855957031 9.333140258789063 -162.5 78.2013 158.065 3.16655 -10.9619 2.17709 2.52846 -9.56445 2.67773 -40.1578 44.3717 394.696 94.3336 -56.3974 802.33 -113.4741 -8.78674 -10.0692 17.844 17.2861 -27.0062 0.0 7.81828 0.0 19.1336 -9.06073 27.27 0.0 0.0 0.0 0.0 0.0 0.0 111.1122 -8.46107 -359.225 -7.58009 -0.345906 50.7292 0.0 16.4797 0.0 -13.0758 -19.6155 -45.4174 0.0 0.0 0.0 0.0 0.0 0.0 2.77514 -5.3452 8.26885 0.0 5.95478 0.0 -9.28273 -0.51609993 11.1286 0.0 -33.1205 0.0 7.73343 -7.28738 7.44683 0.0 6.66833 0.0 13.9321 4.208 -18.669 0.0 -33.1138 0.0 
  1.0158499908447265 4.825220031738281 9.332620239257812 -162.467 78.1974 158.04 3.13967 -11.0512 2.16464 2.51726 -9.54794 2.67253 -39.778 45.1782 393.823 94.0123 -56.4617 801.797 -113.5214 -8.79059 -9.94006 17.7996 17.1626 -27.2868 0.0 7.94707 0.0 19.2996 -8.94661 26.9714 0.0 0.0 0.0 0.0 0.0 0.0 111.1267 -8.41397 -359.28 -7.59439 -0.389036 50.8166 0.0 16.4891 0.0 -13.113 -19.3062 -45.5765 0.0 0.0 0.0 0.0 0.0 0.0 2.78491 -5.32442 8.28372 0.0 5.94426 0.0 -9.28716 -0.5311003 11.1093 0.0 -33.1377 0.0 7.73965 -7.25476 7.4279 0.0 6.63986 0.0 13.9227 4.2005997 -18.6524 0.0 -33.1019 0.0 
  1.0151399993896484 4.82281005859375 9.332009887695312 -162.446 78.1771 158.03 3.10794 -11.1683 2.13411 2.52471 -9.51609 2.64902 -39.2443 46.2738 392.541 93.6125 -56.5995 801.197 -113.5282 -8.7946 -9.94843 17.5946 16.9573 -27.4745 0.0 8.23238 0.0 19.3597 -8.86945 26.5708 0.0 0.0 0.0 0.0 0.0 0.0 111.129196 -8.35443 -359.326 -7.57257 -0.403987 50.8416 0.0 16.4891 0.0 -13.1573 -18.9265 -45.3606 0.0 0.0 0.0 0.0 0.0 0.0 2.79941 -5.32844 8.29403 0.0 5.94696 0.0 -9.29962 -0.56089973 11.0874 0.0 -33.14 0.0 7.75389 -7.23755 7.48599 0.0 6.60893 0.0 13.9399 4.1710997 -18.705 0.0 -33.088898 0.0 
  1.0145099639892579 4.820369873046875 9.331400146484375 -162.406 78.1746 158.019 3.05799 -11.2756 2.09202 2.56716 -9.47434 2.61776 -38.5366 47.7208 390.771 93.3109 -56.8243 800.657 -113.4982 -8.84201 -10.0733 17.2304 16.8091 -27.5204 0.0 8.4987 0.0 19.4234 -8.70411 25.9687 0.0 0.0 0.0 0.0 0.0 0.0 111.1107 -8.33746 -359.277 -7.51683 -0.365031 50.7235 0.0 16.5221 0.0 -13.3084 -18.629 -45.1694 0.0 0.0 0.0 0.0 0.0 0.0 2.80809 -5.31866 8.25687 0.0 5.95204 0.0 -9.32319 -0.59490013 11.0857 0.0 -33.1297 0.0 7.75912 -7.21062 7.46866 0.0 6.59302 0.0 13.9623 4.1438 -18.6996 0.0 -33.0941 0.0 
  1.0137599945068358 4.818630065917969 9.33073974609375 -162.326 78.1661 157.978 3.008 -11.3816 2.03867 2.62423 -9.44006 2.57472 -37.6371 49.3547 388.645 93.0167 -57.1509 799.841 -113.5281 -8.8278 -10.1166 16.9003 16.5672 -27.6319 0.0 8.66779 0.0 19.8398 -8.05264 25.4189 0.0 0.0 0.0 0.0 0.0 0.0 111.0479 -8.29036 -359.238 -7.35542 -0.349402 50.5915 0.0 16.5711 0.0 -13.4195 -18.3032 -44.6914 0.0 0.0 0.0 0.0 0.0 0.0 2.82734 -5.32092 8.21319 0.0 5.96312 0.0 -9.3306 -0.62629986 11.089 0.0 -33.1808 0.0 7.77661 -7.22128 7.47692 0.0 6.6332 0.0 14.0261 4.0928 -18.6985 0.0 -33.0723 0.0 
  1.0131700134277344 4.817560119628906 9.33051025390625 -162.212 78.1753 157.904 2.97257 -11.4614 1.98764 2.63337 -9.36512 2.52945 -35.8064 51.2088 385.263 92.5079 -57.621 798.765 -113.51 -8.85732 -10.2805 16.3879 16.3334 -27.6953 0.0 8.8881 0.0 20.8586 -6.85084 24.8458 0.0 0.0 0.0 0.0 0.0 0.0 111.052704 -8.16422 -359.316 -7.14809 -0.502985 50.667 0.0 16.6525 0.0 -13.4544 -17.7425 -44.363 0.0 0.0 0.0 0.0 0.0 0.0 2.84683 -5.31402 8.17497 0.0 5.98364 0.0 -9.3267 -0.6473999 11.0961 0.0 -33.21 0.0 7.79563 -7.23732 7.51877 0.0 6.70993 0.0 14.0918 4.0417995 -18.7322 0.0 -33.0821 0.0 
  1.0126599884033203 4.817219848632813 9.330670166015626 -162.071 78.197 157.807 2.9504 -11.4928 1.90202 2.63419 -9.40984 2.44793 -33.9793 52.9825 381.872 92.3364 -58.2239 797.453 -113.4736 -8.83492 -10.2769 15.7421 15.8343 -27.8202 0.0 9.22138 0.0 22.7268 -5.31901 23.962 0.0 0.0 0.0 0.0 0.0 0.0 111.0633 -8.1262 -359.421 -6.8792 -0.446669 50.7261 0.0 16.7308 0.0 -13.6241 -17.0659 -43.6128 0.0 0.0 0.0 0.0 0.0 0.0 2.87388 -5.3126 8.20916 0.0 6.03361 0.0 -9.33081 -0.6566 11.0208 0.0 -33.218903 0.0 7.81181 -7.23942 7.58014 0.0 6.77692 0.0 14.1818 3.9933004 -18.7735 0.0 -33.055702 0.0 
  1.0121700286865234 4.818330078125 9.331220092773437 -161.949 78.2205 157.726 2.87542 -11.4893 1.80184 2.70864 -9.41194 2.3641 -31.1714 55.0076 377.165 92.0448 -58.8125 796.6 -113.4789 -8.86537 -10.1623 14.915 15.2175 -28.1592 0.0 9.78863 0.0 25.3725 -3.8035 22.5018 0.0 0.0 0.0 0.0 0.0 0.0 111.0841 -8.07703 -359.394 -6.57063 -0.426381 50.7011 0.0 16.7572 0.0 -13.6131 -15.9758 -42.433 0.0 0.0 0.0 0.0 0.0 0.0 2.89725 -5.33745 8.23977 0.0 6.11264 0.0 -9.34766 -0.6648998 10.9508 0.0 -33.2104 0.0 7.82246 -7.23627 7.61542 0.0 6.81873 0.0 14.2521 3.9705 -18.7933 0.0 -33.027298 0.0 
  1.012030029296875 4.820450134277344 9.33135986328125 -161.841 78.2318 157.67 2.73177 -11.4666 1.64937 2.91014 -9.46043 2.24508 -27.9551 56.9611 372.063 91.6063 -59.3841 795.67 -113.5383 -8.91293 -9.86295 13.8524 14.2975 -28.6152 0.0 10.7921 0.0 28.6257 -2.69757 20.329 0.0 0.0 0.0 0.0 0.0 0.0 111.110596 -8.13454 -359.379 -6.21975 -0.200206 50.7739 0.0 16.7947 0.0 -13.8773 -14.4025 -41.0882 0.0 0.0 0.0 0.0 0.0 0.0 2.91399 -5.38145 8.2097 0.0 6.18481 0.0 -9.34546 -0.6817999 10.9527 0.0 -33.2013 0.0 7.83013 -7.2461 7.61419 0.0 6.84556 0.0 14.3413 3.9497995 -18.794 0.0 -33.0981 0.0 
